<svg width="63" height="25" viewBox="0 0 63 25" fill="none" xmlns="http://www.w3.org/2000/svg">
<path d="M10.0996 19.0745C10.0996 16.0686 8.47844 13.5892 5.1265 13.5892C1.53357 13.5892 0 16.4416 0 19.272C0 22.1683 1.57738 24.8452 5.30176 24.8452C7.12014 24.8452 8.54416 24.2089 9.7272 22.8924L7.90883 21.2906C7.16395 22.1464 6.28763 22.4535 5.32367 22.4535C3.61484 22.4535 2.73851 21.5101 2.62897 20.0839H10.0339C10.0777 19.7328 10.0996 19.4037 10.0996 19.0745ZM2.60707 17.9994C2.76042 16.9243 3.5053 15.7833 5.10459 15.7833C6.4848 15.7833 7.53639 16.6171 7.58021 17.9994H2.60707Z" fill="black"/>
<path d="M12.8503 24.6257H15.5012V21.7734H12.8503V24.6257Z" fill="#278A45"/>
<path d="M24.9311 15.893V13.8086H22.2364V9.77135L19.6074 11.7241V13.8086H17.8548V15.893H19.6074V21.5978C19.6074 23.9017 21.141 24.8452 22.9594 24.8452C23.6166 24.8452 24.2738 24.7355 24.9311 24.516V22.4097C24.4491 22.5632 23.989 22.651 23.6166 22.651C22.7622 22.651 22.2364 22.2561 22.2364 21.4003V15.893H24.9311Z" fill="#278A45"/>
<path d="M31.5754 24.8452C34.9054 24.8452 36.9867 22.2561 36.9867 19.2062C36.9867 16.1344 34.9054 13.5892 31.5754 13.5892C28.2235 13.5892 26.1641 16.1344 26.1641 19.2062C26.1641 22.2561 28.2235 24.8452 31.5754 24.8452ZM31.5754 22.5413C29.5818 22.5413 28.7931 20.9615 28.7931 19.2062C28.7931 17.4289 29.5818 15.893 31.5754 15.893C33.5691 15.893 34.3577 17.4289 34.3577 19.2062C34.3577 20.9615 33.5691 22.5413 31.5754 22.5413Z" fill="#278A45"/>
<path d="M41.5195 24.8452C42.0234 24.8452 42.6149 24.7355 43.2064 24.516V22.4097C42.8997 22.4974 42.6149 22.5413 42.3739 22.5413C41.8919 22.5413 41.6071 22.3438 41.6071 21.8611V9.33252H38.9781V22.0367C38.9781 23.9675 40.0516 24.8452 41.5195 24.8452Z" fill="#278A45"/>
<path d="M47.6169 24.8452C48.1208 24.8452 48.7124 24.7355 49.3039 24.516V22.4097C48.9972 22.4974 48.7123 22.5413 48.4714 22.5413C47.9894 22.5413 47.7046 22.3438 47.7046 21.8611V9.33252H45.0756V22.0367C45.0756 23.9675 46.1491 24.8452 47.6169 24.8452Z" fill="#278A45"/>
<path d="M54.6784 24.8452C56.7158 24.8452 58.8847 23.7481 58.8847 21.2248C58.8847 17.2753 53.2324 18.2408 53.2324 16.5952C53.2324 16.0905 53.7582 15.6736 54.6126 15.6736C55.7957 15.6736 56.3872 16.3757 56.7596 17.0559L58.7971 15.9369C57.9865 14.4668 56.5625 13.5892 54.7003 13.5892C52.619 13.5892 50.7349 14.6643 50.7349 16.7487C50.7349 20.764 56.2996 19.5573 56.2996 21.3784C56.2996 21.9489 55.7738 22.651 54.5469 22.651C53.101 22.651 52.5314 21.6636 52.2466 20.8738L50.1434 21.8172C50.6692 23.4628 52.3999 24.8452 54.6784 24.8452Z" fill="#278A45"/>
<path d="M59.0147 4.02204L58.9276 11.0116L52.0247 4.0452L59.0147 4.02204Z" fill="black"/>
</svg>
