<svg width="26" height="27" viewBox="0 0 26 27" fill="none" xmlns="http://www.w3.org/2000/svg">
<path d="M13.2461 0.695984C10.7244 0.695984 8.25931 1.44376 6.16258 2.84475C4.06585 4.24573 2.43165 6.23701 1.46664 8.56677C0.501618 10.8965 0.249126 13.4601 0.741087 15.9334C1.23305 18.4066 2.44737 20.6785 4.23049 22.4616C6.01361 24.2447 8.28544 25.459 10.7587 25.951C13.232 26.443 15.7956 26.1905 18.1253 25.2254C20.4551 24.2604 22.4464 22.6262 23.8473 20.5295C25.2483 18.4328 25.9961 15.9677 25.9961 13.446C25.9921 10.0657 24.6476 6.82499 22.2573 4.43476C19.8671 2.04453 16.6264 0.699954 13.2461 0.695984ZM6.1761 22.196C6.90959 20.9763 7.94613 19.9671 9.18498 19.2665C10.4238 18.566 11.8229 18.1978 13.2461 18.1978C14.6693 18.1978 16.0684 18.566 17.3072 19.2665C18.5461 19.9671 19.5826 20.9763 20.3161 22.196C18.3166 23.8174 15.8204 24.7023 13.2461 24.7023C10.6718 24.7023 8.17565 23.8174 6.1761 22.196ZM8.9961 12.446C8.9961 11.6054 9.24536 10.7837 9.71235 10.0848C10.1793 9.3859 10.8431 8.84117 11.6197 8.5195C12.3963 8.19782 13.2508 8.11366 14.0752 8.27765C14.8997 8.44163 15.6569 8.84641 16.2513 9.44078C16.8457 10.0352 17.2504 10.7924 17.4144 11.6168C17.5784 12.4413 17.4943 13.2958 17.1726 14.0724C16.8509 14.849 16.3062 15.5127 15.6073 15.9797C14.9084 16.4467 14.0867 16.696 13.2461 16.696C12.1189 16.696 11.0379 16.2482 10.2409 15.4512C9.44387 14.6542 8.9961 13.5732 8.9961 12.446ZM21.4348 21.151C20.2564 19.3187 18.495 17.9368 16.4348 17.2285C17.4621 16.5443 18.242 15.5476 18.6591 14.3859C19.0762 13.2242 19.1084 11.9592 18.751 10.7778C18.3936 9.59634 17.6654 8.5613 16.6743 7.82566C15.6832 7.09002 14.4816 6.69284 13.2473 6.69284C12.013 6.69284 10.8115 7.09002 9.82038 7.82566C8.82925 8.5613 8.10115 9.59634 7.74372 10.7778C7.38629 11.9592 7.41851 13.2242 7.83561 14.3859C8.25271 15.5476 9.03256 16.5443 10.0598 17.2285C7.99968 17.9368 6.23826 19.3187 5.05985 21.151C3.55338 19.5523 2.54788 17.5476 2.1674 15.3842C1.78692 13.2208 2.0481 10.9934 2.91873 8.97665C3.78936 6.95994 5.23134 5.24223 7.06676 4.03544C8.90218 2.82865 11.0507 2.18559 13.2473 2.18559C15.444 2.18559 17.5925 2.82865 19.4279 4.03544C21.2634 5.24223 22.7053 6.95994 23.576 8.97665C24.4466 10.9934 24.7078 13.2208 24.3273 15.3842C23.9468 17.5476 22.9413 19.5523 21.4348 21.151Z" fill="#278A45"/>
</svg>
